<svg xmlns:xlink="http://www.w3.org/1999/xlink" xmlns="http://www.w3.org/2000/svg" width="512" height="512" viewBox="0 0 32 32"><defs><linearGradient x1="28.538%" y1="20.229%" x2="100%" y2="108.156%" id="logo-a"><stop stop-color="#A5B4FC" stop-opacity="0" offset="0%"></stop><stop stop-color="#A5B4FC" offset="100%"></stop></linearGradient><linearGradient x1="88.638%" y1="29.267%" x2="22.42%" y2="100%" id="logo-b"><stop stop-color="#38BDF8" stop-opacity="0" offset="0%"></stop><stop stop-color="#38BDF8" offset="100%"></stop></linearGradient><linearGradient x1="28.538%" y1="20.229%" x2="100%" y2="108.156%" id="logo-a"><stop stop-color="#A5B4FC" stop-opacity="0" offset="0%"></stop><stop stop-color="#A5B4FC" offset="100%"></stop></linearGradient><linearGradient x1="88.638%" y1="29.267%" x2="22.42%" y2="100%" id="logo-b"><stop stop-color="#38BDF8" stop-opacity="0" offset="0%"></stop><stop stop-color="#38BDF8" offset="100%"></stop></linearGradient></defs><rect fill="#6366F1" width="32" height="32" rx="16"></rect><path d="M18.277.16C26.035 1.267 32 7.938 32 16c0 8.837-7.163 16-16 16a15.937 15.937 0 01-10.426-3.863L18.277.161z" fill="#4F46E5"></path><path d="M7.404 2.503l18.339 26.19A15.93 15.93 0 0116 32C7.163 32 0 24.837 0 16 0 10.327 2.952 5.344 7.404 2.503z" fill="url(&quot;#logo-a&quot;)"></path><path d="M2.223 24.14L29.777 7.86A15.926 15.926 0 0132 16c0 8.837-7.163 16-16 16-5.864 0-10.991-3.154-13.777-7.86z" fill="url(&quot;#logo-b&quot;)"></path></svg>